# xmcd
#
# Track frame offsets: 
#        150
#        15294
#        34641
#        52044
#        65091
#        77526
#        98358
#        117768
#        133713
#        148200
#        164118
#        178578
#        196773
#
# Disc length: 2880 seconds
#
# Revision: 0
# Processed by: cddbd v1.5.2PL0 Copyright (c) Steve Scherf et al.
# Submitted via: ExactAudioCopy v1.0b1
#
DISCID=aa0b3e0d
DTITLE=Chris LeDoux - The Ultimate Collection CD1
DYEAR=2006
DGENRE=Country
TTITLE0=Life Is A Highway
TTITLE1=This Cowboy's Hat
TTITLE2=Life Is A Highway
TTITLE3=He Rides The Wild Horses
TTITLE4=Copenhagen
TTITLE5=Take Me To The Rodeo
TTITLE6=Seventeen
TTITLE7=Hooked On An Eight Second Ride
TTITLE8=Bareback Jack
TTITLE9=Riding For A Fall
TTITLE10=Even Cowboys Like A Little Rock And Roll
TTITLE11=Silence On The Line
TTITLE12=Little Long-Haired Outlaw
EXTD=
EXTT0=
EXTT1=
EXTT2=
EXTT3=
EXTT4=
EXTT5=
EXTT6=
EXTT7=
EXTT8=
EXTT9=
EXTT10=
EXTT11=
EXTT12=
PLAYORDER=
